<svg xmlns="http://www.w3.org/2000/svg" xmlns:xlink="http://www.w3.org/1999/xlink" version="1.1" width="290" height="420">
<defs> 
<path id="right-pin-arrow" d="M2,2 L9,5 L2,8 z" fill="black" />
 <path id="left-pin-arrow" d="M9,2 L9,8 L2,5 z" fill="black" />
 <path id="right-pins-arrow" d="M2,2 L11,6 L2,10 z" fill="black" />
 <path id="left-pins-arrow" d="M11,2 L2,6 L11,10 z" fill="black" />
 </defs>
 <text x="145" y="24" fill="black" font-size="12" text-anchor="middle"> dpram2048x16</text>
<rect id="rect" x="35" y="40" width="220" height="300" style="fill-opacity:0;stroke-width:1;" stroke="black"/> 
<text x="37" y="74" fill="black" font-size="12" text-anchor="start"> wr_clk_i</text>
<line x1="10" y1="70" x2="32" y2="70"  stroke="black" stroke-width="1" /> 
<use x="26" y="65" xlink:href = "#right-pin-arrow"/>
<text x="37" y="104" fill="black" font-size="12" text-anchor="start"> rd_clk_i</text>
<line x1="10" y1="100" x2="32" y2="100"  stroke="black" stroke-width="1" /> 
<use x="26" y="95" xlink:href = "#right-pin-arrow"/>
<text x="37" y="134" fill="black" font-size="12" text-anchor="start"> wr_clk_en_i</text>
<line x1="10" y1="130" x2="32" y2="130"  stroke="black" stroke-width="1" /> 
<use x="26" y="125" xlink:href = "#right-pin-arrow"/>
<text x="37" y="164" fill="black" font-size="12" text-anchor="start"> rd_en_i</text>
<line x1="10" y1="160" x2="32" y2="160"  stroke="black" stroke-width="1" /> 
<use x="26" y="155" xlink:href = "#right-pin-arrow"/>
<text x="37" y="194" fill="black" font-size="12" text-anchor="start"> rd_clk_en_i</text>
<line x1="10" y1="190" x2="32" y2="190"  stroke="black" stroke-width="1" /> 
<use x="26" y="185" xlink:href = "#right-pin-arrow"/>
<text x="37" y="224" fill="black" font-size="12" text-anchor="start"> wr_en_i</text>
<line x1="10" y1="220" x2="32" y2="220"  stroke="black" stroke-width="1" /> 
<use x="26" y="215" xlink:href = "#right-pin-arrow"/>
<text x="37" y="254" fill="black" font-size="12" text-anchor="start"> wr_data_i[15:0]</text>
<line x1="10" y1="250" x2="30" y2="250"  stroke="black" stroke-width="3" />  
<use x="24" y="244" xlink:href = "#right-pins-arrow"/>
<text x="37" y="284" fill="black" font-size="12" text-anchor="start"> wr_addr_i[10:0]</text>
<line x1="10" y1="280" x2="30" y2="280"  stroke="black" stroke-width="3" />  
<use x="24" y="274" xlink:href = "#right-pins-arrow"/>
<text x="37" y="314" fill="black" font-size="12" text-anchor="start"> rd_addr_i[10:0]</text>
<line x1="10" y1="310" x2="30" y2="310"  stroke="black" stroke-width="3" />  
<use x="24" y="304" xlink:href = "#right-pins-arrow"/>
<text x="253" y="194" fill="black" font-size="12" text-anchor="end"> rd_data_o[15:0]</text>
<line x1="255" y1="190" x2="275" y2="190"  stroke="black" stroke-width="3" />  
<use x="269" y="184" xlink:href = "#right-pins-arrow"/>
</svg>
